<svg xmlns="http://www.w3.org/2000/svg" width="91" height="28" viewBox="0 0 91 28" role="img" aria-label="MLflow"><style>svg{--tx:#1a1a1a;--mu:#666660;--ac:#b84700;--bd:#dddddd;--sf:#faf9f2;--grid:#e8e8e0;--on:#ffffff}@media(prefers-color-scheme:dark){svg{--tx:#e6edf3;--mu:#8b949e;--ac:#70d100;--bd:#30363d;--sf:#161b22;--grid:#21262d;--on:#0b1000}}
.d{font-family:'Unica One', Impact, 'Haettenschweiler', 'Arial Narrow', sans-serif} .b{font-family:'Supreme', -apple-system, BlinkMacSystemFont, 'Segoe UI', Arial, sans-serif} .m{font-family:ui-monospace, SFMono-Regular, Menlo, Consolas, monospace}
.tx{fill:var(--tx)} .mu{fill:var(--mu)} .ac{fill:var(--ac)}
.kick{font-size:10.5px;letter-spacing:2.4px;font-weight:500}
.lab{font-size:9px;letter-spacing:1.6px}
.card{fill:var(--sf);stroke:var(--bd);stroke-width:1}
.in{animation:rise .6s cubic-bezier(.2,.7,.2,1) forwards}
@keyframes rise{from{opacity:0;transform:translateY(7px)}to{opacity:1;transform:translateY(0)}}
@media(prefers-reduced-motion:reduce){*{animation:none!important}}

    .chip{fill:var(--sf);stroke:var(--bd);stroke-width:1}
    .glyph{fill:var(--ac)}
    </style><rect x="0.5" y="0.5" width="90" height="27" rx="4" class="chip"/><g transform="translate(13,7) scale(0.58)"><path d="M11.883.002a12.044 12.044 0 0 0-9.326 19.463l3.668-2.694A7.573 7.573 0 0 1 12.043 4.45v2.867l6.908-5.14A12.012 12.012 0 0 0 11.883.002zm9.562 4.533L17.777 7.23a7.573 7.573 0 0 1-5.818 12.322v-2.867l-6.908 5.14a12.046 12.046 0 0 0 16.394-17.29z" class="glyph"/></g><text x="37" y="18.5" class="b tx" font-size="11.5">MLflow</text></svg>