<svg xmlns="http://www.w3.org/2000/svg" width="98" height="28" viewBox="0 0 98 28" role="img" aria-label="PyTorch"><style>svg{--tx:#1a1a1a;--mu:#666660;--ac:#b84700;--bd:#dddddd;--sf:#faf9f2;--grid:#e8e8e0;--on:#ffffff}@media(prefers-color-scheme:dark){svg{--tx:#e6edf3;--mu:#8b949e;--ac:#70d100;--bd:#30363d;--sf:#161b22;--grid:#21262d;--on:#0b1000}}
.d{font-family:'Unica One', Impact, 'Haettenschweiler', 'Arial Narrow', sans-serif} .b{font-family:'Supreme', -apple-system, BlinkMacSystemFont, 'Segoe UI', Arial, sans-serif} .m{font-family:ui-monospace, SFMono-Regular, Menlo, Consolas, monospace}
.tx{fill:var(--tx)} .mu{fill:var(--mu)} .ac{fill:var(--ac)}
.kick{font-size:10.5px;letter-spacing:2.4px;font-weight:500}
.lab{font-size:9px;letter-spacing:1.6px}
.card{fill:var(--sf);stroke:var(--bd);stroke-width:1}
.in{animation:rise .6s cubic-bezier(.2,.7,.2,1) forwards}
@keyframes rise{from{opacity:0;transform:translateY(7px)}to{opacity:1;transform:translateY(0)}}
@media(prefers-reduced-motion:reduce){*{animation:none!important}}

    .chip{fill:var(--sf);stroke:var(--bd);stroke-width:1}
    .glyph{fill:var(--ac)}
    </style><rect x="0.5" y="0.5" width="97" height="27" rx="4" class="chip"/><g transform="translate(13,7) scale(0.58)"><path d="M12.005 0L4.952 7.053a9.865 9.865 0 000 14.022 9.866 9.866 0 0014.022 0c3.984-3.9 3.986-10.205.085-14.023l-1.744 1.743c2.904 2.905 2.904 7.634 0 10.538s-7.634 2.904-10.538 0-2.904-7.634 0-10.538l4.647-4.646.582-.665zm3.568 3.899a1.327 1.327 0 00-1.327 1.327 1.327 1.327 0 001.327 1.328A1.327 1.327 0 0016.9 5.226 1.327 1.327 0 0015.573 3.9z" class="glyph"/></g><text x="37" y="18.5" class="b tx" font-size="11.5">PyTorch</text></svg>